Coordinates
version=1
nRows=12
nColumns=24
inDegrees=yes

Units are S.I. units (second, meters, Newtons, ...)
Angles are in degrees.

endheader
time	pelvis_tilt	pelvis_list	pelvis_rotation	pelvis_tx	pelvis_ty	pelvis_tz	hip_flexion_r	hip_adduction_r	hip_rotation_r	knee_angle_r	ankle_angle_r	subtalar_angle_r	mtp_angle_r	hip_flexion_l	hip_adduction_l	hip_rotation_l	knee_angle_l	ankle_angle_l	subtalar_angle_l	mtp_angle_l	lumbar_extension	lumbar_bending	lumbar_rotation
      5.67000000	      5.41708459	    -11.15204447	     24.70923760	      0.18794943	      0.65837880	      0.29177086	     13.38209386	     14.10334697	    -11.24354292	    -20.25356611	     13.06217798	    -15.72169339	      0.00000000	     10.15479464	    -11.47298871	     14.89775197	    -73.34610171	    -11.98917993	    -21.42899937	      0.00000000	    -17.95522136	     15.29907294	     -7.82779438
      5.68000000	      5.23130238	    -11.12057785	     23.22630366	      0.20070497	      0.66010708	      0.29255388	     11.76818474	     14.71090741	    -10.36643822	    -19.39543472	     14.07290749	    -14.55195168	      0.00000000	     12.50204492	    -10.16566240	     14.59027090	    -75.12477134	     -9.13372258	    -20.85121265	      0.00000000	    -18.06798064	     14.73048688	     -6.37352129
      5.69000000	      4.97322429	    -10.90935669	     21.70612142	      0.21343655	      0.66183211	      0.29336276	     10.07510500	     15.10850637	     -9.13953799	    -18.45069694	     14.82286039	    -13.72592167	      0.00000000	     14.78559673	     -8.78226976	     14.14087987	    -76.32589403	     -6.52198572	    -20.27815304	      0.00000000	    -18.10713748	     13.94878810	     -5.10486706
      5.70000000	      4.66047859	    -10.54986660	     20.18904995	      0.22607705	      0.66348045	      0.29416334	      8.35929275	     15.29565726	     -7.71508827	    -17.48076204	     15.40459005	    -13.20776766	      0.00000000	     17.02558020	     -7.36847268	     13.58643263	    -76.97215768	     -4.16503910	    -19.85688369	      0.00000000	    -18.08916514	     13.01222207	     -3.97684502
      5.71000000	      4.28640525	    -10.05296993	     18.67348512	      0.23859660	      0.66502315	      0.29491321	      6.67269496	     15.25023652	     -6.22275311	    -16.53116610	     15.96998971	    -12.81486190	      0.00000000	     19.21582645	     -5.93427424	     12.92382725	    -77.02325531	     -2.41694996	    -20.18156491	      0.00000000	    -18.01779163	     11.94027545	     -2.94970233
      5.72000000	      3.88144479	     -9.49794860	     17.23966934	      0.25095335	      0.66639659	      0.29560567	      5.04661150	     15.05327109	     -4.77363431	    -15.60287607	     16.41079692	    -12.45355612	      0.00000000	     21.39566836	     -4.58214690	     12.25643718	    -76.56244802	     -0.72573791	    -20.48141965	      0.00000000	    -17.90661040	     10.83204250	     -2.08795128
      5.73000000	      3.44591298	     -8.93611219	     15.86757261	      0.26318647	      0.66757075	      0.29621389	      3.50673400	     14.75036871	     -3.49747096	    -14.69648122	     16.81095754	    -12.11490444	      0.00000000	     23.54616624	     -3.39269757	     11.53706319	    -75.56233236	      0.70359184	    -21.15535502	      0.00000000	    -17.74438228	      9.75154822	     -1.33772838
      5.74000000	      2.95223855	     -8.36478587	     14.53185227	      0.27525833	      0.66852583	      0.29677651	      2.10153501	     14.34373063	     -2.36086118	    -13.84791211	     17.18100267	    -11.74071817	      0.00000000	     25.66581629	     -2.36611442	     10.76233979	    -74.01167009	      1.74344848	    -22.26381428	      0.00000000	    -17.54269697	      8.66369384	     -0.60727798
      5.75000000	      2.38615762	     -7.80617816	     13.25245571	      0.28719492	      0.66924373	      0.29720499	      0.86117228	     13.85307040	     -1.49212912	    -13.05906527	     17.52072003	    -11.27653370	      0.00000000	     27.72518197	     -1.49501336	      9.95809453	    -71.85346357	      1.86992905	    -24.49614950	      0.00000000	    -17.27019055	      7.62455864	      0.03976192
      5.76000000	      1.76743276	     -7.31189141	     11.99799238	      0.29905257	      0.66970577	      0.29760603	     -0.23901031	     13.36640471	     -0.83307462	    -12.31811689	     17.90349017	    -10.63304325	      0.00000000	     29.70434804	     -0.90249043	      9.09614593	    -69.15863904	      1.76439422	    -26.76430152	      0.00000000	    -16.94425731	      6.65499430	      0.69794924
      5.77000000	      1.11331415	     -6.90449033	     10.75998178	      0.31088273	      0.66992557	      0.29799897	     -1.23549651	     12.92879623	     -0.35603922	    -11.59505563	     18.24983718	     -9.94620268	      0.00000000	     31.53490683	     -0.60460357	      8.20588872	    -65.90786600	      1.38068555	    -29.08692592	      0.00000000	    -16.56362350	      5.76766061	      1.38758964
      5.78000000	      0.46066326	     -6.58793439	      9.53409234	      0.32274591	      0.66994590	      0.29837792	     -2.19120814	     12.55673696	     -0.06378865	    -10.86691278	     18.48852987	     -9.24879896	      0.00000000	     33.12163081	     -0.58886356	      7.32238359	    -62.09308176	      0.79992631	    -31.25358486	      0.00000000	    -16.16462866	      4.98365243	      2.19264987
